<svg 
 xmlns="http://www.w3.org/2000/svg"
 xmlns:xlink="http://www.w3.org/1999/xlink"
 width="364px" height="129px">
<path fill-rule="evenodd"  stroke-width="2px" stroke="rgb(7, 18, 27)" fill="rgb(13, 30, 45)"
 d="M358.281,120.773 L357.524,122.722 C357.235,123.064 356.911,123.287 356.551,123.389 C356.190,123.492 355.903,123.372 355.686,123.030 C354.965,122.415 354.227,121.799 353.470,121.183 C352.713,120.567 352.190,120.122 351.903,119.849 C351.757,119.849 351.686,119.814 351.686,119.747 C346.568,116.052 341.127,112.871 335.362,110.203 C334.281,109.793 333.200,109.313 332.118,108.766 C330.750,113.007 328.407,116.394 325.091,118.926 C319.615,122.825 313.488,124.364 306.713,123.543 C302.533,122.928 299.361,120.806 297.199,117.181 C296.190,115.196 295.939,113.128 296.442,110.973 C296.947,108.818 297.885,106.953 299.253,105.380 C301.993,102.233 305.290,100.129 309.145,99.069 C313.002,98.008 316.948,97.751 320.983,98.299 C320.696,97.479 320.318,96.520 319.848,95.426 C319.445,94.484 319.028,93.703 318.598,93.066 C318.452,93.066 318.309,93.066 318.226,93.066 C318.118,93.066 318.027,93.032 317.956,92.963 C317.811,92.758 317.757,92.502 317.794,92.194 C317.829,91.886 317.883,91.596 317.956,91.321 C318.027,91.116 318.064,90.946 318.064,90.808 C318.135,90.398 318.172,90.023 318.172,89.680 C318.172,89.338 318.208,89.064 318.280,88.859 C318.280,88.517 318.316,88.140 318.388,87.730 C318.605,86.567 318.748,85.405 318.821,84.241 C318.964,82.463 319.073,80.649 319.145,78.802 L319.145,78.392 C319.145,78.119 319.108,77.776 319.037,77.366 C318.459,73.193 316.551,69.738 313.307,67.001 C310.856,65.154 308.027,64.145 304.821,63.974 C301.613,63.804 298.748,64.641 296.226,66.488 C293.126,68.884 291.793,71.962 292.226,75.724 C292.513,77.503 293.378,79.007 294.821,80.239 C296.261,81.470 297.919,82.086 299.794,82.086 C301.667,82.019 303.289,81.334 304.659,80.034 C306.027,78.735 306.604,77.196 306.388,75.416 C305.811,75.895 305.180,76.083 304.496,75.980 C303.811,75.878 303.324,75.518 303.037,74.903 C302.748,74.425 302.675,73.928 302.821,73.415 C302.964,72.902 303.289,72.475 303.794,72.132 C304.946,71.516 306.064,71.516 307.145,72.132 C307.794,72.542 308.334,73.091 308.767,73.774 C309.199,74.459 309.559,75.108 309.848,75.724 C310.496,77.776 310.424,79.795 309.632,81.778 C308.045,85.267 305.343,87.663 301.523,88.961 C297.848,90.125 294.099,90.331 290.280,89.577 C286.026,88.961 282.280,87.319 279.036,84.651 C276.009,81.916 274.207,78.666 273.631,74.903 C272.550,66.352 275.972,59.305 283.901,53.763 C287.864,51.370 292.226,50.207 296.983,50.275 C297.486,47.470 296.496,45.367 294.010,43.964 C291.523,42.562 288.658,41.690 285.415,41.347 C282.172,41.005 279.540,40.903 277.523,41.039 C276.802,41.108 276.242,40.903 275.847,40.423 C275.450,39.945 275.324,39.363 275.469,38.679 L277.415,33.240 L270.928,33.240 L268.766,33.240 L266.279,33.240 C264.693,40.628 263.864,48.291 263.793,56.226 C263.144,67.242 264.045,78.084 266.496,88.756 C266.567,88.961 266.639,89.235 266.712,89.577 C266.928,89.987 267.072,90.433 267.144,90.911 C267.215,91.459 267.090,91.767 266.766,91.835 C266.442,91.904 266.063,91.904 265.631,91.835 L263.793,91.835 C263.431,91.835 263.107,91.870 262.820,91.937 L260.550,91.937 C259.036,92.075 257.558,92.109 256.117,92.040 C255.972,92.040 255.828,92.040 255.685,92.040 C255.539,92.040 255.396,91.972 255.252,91.835 C255.107,91.698 255.053,91.475 255.090,91.168 C255.126,90.860 255.215,90.569 255.360,90.295 C255.431,90.090 255.468,89.954 255.468,89.885 C255.539,89.407 255.577,88.997 255.577,88.653 C255.577,88.448 255.612,88.176 255.685,87.832 C255.685,87.491 255.756,87.149 255.901,86.806 C256.044,85.713 256.153,84.549 256.225,83.317 C256.369,81.198 256.477,79.007 256.550,76.750 C256.693,71.072 256.550,65.189 256.117,59.100 C255.972,56.500 255.828,53.935 255.685,51.403 C255.396,45.179 254.963,39.602 254.387,34.677 C254.315,34.130 254.279,33.650 254.279,33.240 L251.793,33.240 L249.630,33.240 L247.144,33.240 C245.558,40.766 244.693,48.599 244.549,56.739 C243.901,67.822 244.836,78.837 247.360,89.782 C247.431,89.987 247.504,90.262 247.576,90.603 C247.793,91.014 247.936,91.459 248.009,91.937 C248.080,92.486 247.955,92.793 247.630,92.861 C247.306,92.930 246.928,92.930 246.495,92.861 L244.657,92.861 C244.225,92.930 243.863,92.963 243.576,92.963 C242.855,92.963 242.098,92.999 241.306,93.066 C239.792,93.133 238.279,93.133 236.765,93.066 C236.549,93.066 236.387,93.066 236.279,93.066 C236.171,93.066 236.080,93.032 236.009,92.963 C235.863,92.758 235.809,92.502 235.846,92.194 C235.882,91.886 235.936,91.596 236.009,91.321 C236.080,91.116 236.117,90.946 236.117,90.808 C236.188,90.398 236.225,90.023 236.225,89.680 C236.225,89.338 236.260,89.064 236.333,88.859 C236.333,88.517 236.368,88.140 236.441,87.730 C236.657,86.567 236.801,85.405 236.873,84.241 C237.017,82.463 237.125,80.649 237.198,78.802 L237.198,78.392 C237.198,78.119 237.161,77.776 237.090,77.366 C236.512,73.193 234.603,69.738 231.360,67.001 C228.909,65.154 226.079,64.145 222.873,63.974 C219.665,63.804 216.801,64.641 214.278,66.488 C211.179,68.884 209.846,71.962 210.278,75.724 C210.566,77.503 211.430,79.007 212.873,80.239 C214.314,81.470 215.971,82.086 217.846,82.086 C219.719,82.019 221.341,81.334 222.711,80.034 C224.079,78.735 224.657,77.196 224.441,75.416 C223.863,75.895 223.233,76.083 222.549,75.980 C221.863,75.878 221.377,75.518 221.089,74.903 C220.801,74.425 220.728,73.928 220.873,73.415 C221.017,72.902 221.341,72.475 221.846,72.132 C222.998,71.516 224.117,71.516 225.198,72.132 C225.846,72.542 226.387,73.091 226.819,73.774 C227.252,74.459 227.612,75.108 227.900,75.724 C228.549,77.776 228.476,79.795 227.684,81.778 C226.098,85.267 223.395,87.663 219.576,88.961 C215.900,90.125 212.152,90.331 208.332,89.577 C204.079,88.961 200.332,87.319 197.089,84.651 C194.062,81.916 192.260,78.666 191.683,74.903 C190.602,66.352 194.025,59.305 201.954,53.763 C205.917,51.370 210.278,50.207 215.035,50.275 C215.539,47.470 214.549,45.367 212.062,43.964 C209.576,42.562 206.711,41.690 203.467,41.347 C200.224,41.005 197.592,40.903 195.575,41.039 C194.854,41.108 194.295,40.903 193.900,40.423 C193.503,39.945 193.376,39.363 193.521,38.679 L195.467,33.240 L188.981,33.240 L186.819,33.240 L140.331,33.240 C138.240,40.287 136.980,47.504 136.547,54.892 C136.402,61.118 136.764,67.275 137.628,73.363 C137.699,74.048 137.772,74.664 137.845,75.211 C137.845,76.921 138.204,78.186 138.926,79.007 C139.645,79.828 141.520,80.547 144.548,81.162 C148.151,81.162 151.610,80.582 154.926,79.418 C158.889,77.845 162.186,75.485 164.818,72.337 C167.448,69.191 169.124,66.283 169.845,63.615 C170.421,61.495 170.386,59.443 169.737,57.458 C169.088,55.474 167.683,54.004 165.521,53.045 C163.213,52.293 160.962,52.293 158.764,53.045 C156.565,53.799 155.286,55.200 154.926,57.252 C154.781,58.279 154.997,59.169 155.575,59.921 C156.151,60.674 156.943,61.187 157.953,61.460 C158.529,61.529 159.142,61.529 159.791,61.460 C159.862,61.460 159.935,61.444 160.007,61.408 C160.078,61.375 160.132,61.324 160.169,61.255 C160.205,61.187 160.223,61.118 160.223,61.049 C159.791,60.913 159.538,60.657 159.467,60.280 C159.394,59.905 159.448,59.561 159.629,59.254 C159.808,58.946 160.078,58.758 160.440,58.689 C161.376,58.484 162.024,58.638 162.386,59.151 C162.745,59.664 162.926,60.126 162.926,60.536 C162.926,61.631 162.421,62.486 161.413,63.102 C159.683,64.197 157.737,64.574 155.575,64.230 C153.483,63.753 151.683,62.794 150.169,61.357 C146.421,57.321 145.737,52.909 148.115,48.120 C150.637,43.673 154.529,40.869 159.791,39.705 C165.051,38.542 170.205,38.919 175.251,40.834 C178.565,42.203 181.124,44.186 182.927,46.786 C184.944,50.002 185.954,53.456 185.954,57.150 C185.954,60.844 185.089,64.368 183.359,67.719 C180.548,72.850 176.584,77.127 171.467,80.547 C167.286,83.284 162.259,85.216 156.386,86.345 C150.510,87.473 144.943,87.627 139.683,86.806 C136.150,86.329 133.051,85.097 130.385,83.112 C130.096,82.907 129.899,82.737 129.790,82.599 C129.682,82.463 129.628,82.291 129.628,82.086 L129.628,81.778 L129.520,81.983 C129.591,81.437 129.664,80.923 129.736,80.444 C129.880,78.392 129.988,76.272 130.061,74.082 C130.421,66.283 130.385,58.348 129.953,50.275 C129.664,45.282 129.088,40.697 128.223,36.524 C127.934,35.361 127.718,34.266 127.574,33.240 L125.088,33.240 L122.925,33.240 L120.439,33.240 C118.853,40.628 118.023,48.291 117.952,56.226 C117.304,67.242 118.204,78.084 120.655,88.756 C120.726,88.961 120.799,89.235 120.871,89.577 C121.088,89.987 121.231,90.433 121.304,90.911 C121.375,91.459 121.250,91.767 120.925,91.835 C120.601,91.904 120.223,91.904 119.790,91.835 L117.952,91.835 C117.591,91.835 117.267,91.870 116.979,91.937 L114.709,91.937 C113.196,92.075 111.718,92.109 110.277,92.040 C110.131,92.040 109.988,92.040 109.844,92.040 C109.699,92.040 109.555,91.972 109.412,91.835 C109.266,91.698 109.212,91.475 109.250,91.168 C109.285,90.860 109.375,90.569 109.520,90.295 C109.591,90.090 109.628,89.954 109.628,89.885 C109.699,89.407 109.736,88.997 109.736,88.653 C109.736,88.448 109.772,88.176 109.844,87.832 C109.844,87.491 109.915,87.149 110.060,86.806 C110.204,85.713 110.312,84.549 110.385,83.317 C110.528,81.198 110.636,79.007 110.709,76.750 C110.853,71.072 110.709,65.189 110.277,59.100 C110.131,56.500 109.988,53.935 109.844,51.403 C109.555,45.179 109.123,39.602 108.547,34.677 C108.474,34.130 108.439,33.650 108.439,33.240 L105.952,33.240 L103.790,33.240 L67.789,33.240 C70.095,34.061 72.222,35.361 74.168,37.139 C75.609,38.576 76.763,40.356 77.627,42.476 C78.492,44.597 78.779,46.649 78.492,48.633 C78.131,50.412 77.230,52.019 75.790,53.456 C74.347,54.892 72.582,55.372 70.492,54.892 C70.347,54.892 70.203,54.859 70.060,54.790 C69.555,54.517 69.141,54.071 68.816,53.456 C68.492,52.840 68.474,52.260 68.762,51.711 C68.979,51.370 69.266,51.113 69.627,50.942 C69.987,50.772 70.347,50.720 70.708,50.788 C71.068,50.857 71.392,51.028 71.681,51.301 C71.969,51.575 72.149,51.916 72.222,52.327 C73.303,50.959 73.663,49.438 73.303,47.760 C72.941,46.085 72.041,44.802 70.600,43.912 C69.087,43.160 67.482,42.921 65.789,43.194 C64.095,43.468 62.671,44.255 61.519,45.554 C59.357,48.291 58.852,51.336 60.005,54.687 C61.951,58.930 65.303,61.392 70.060,62.076 C72.222,62.213 74.366,61.906 76.492,61.152 C78.617,60.400 80.582,59.476 82.384,58.381 C84.617,57.150 86.744,55.713 88.763,54.071 C89.771,53.319 90.780,52.532 91.790,51.711 C92.222,51.233 92.690,50.788 93.195,50.377 C93.266,50.377 93.339,50.343 93.411,50.275 C93.555,50.069 93.717,49.899 93.898,49.761 C94.077,49.625 94.276,49.556 94.493,49.556 C94.709,49.489 94.925,49.505 95.141,49.607 C95.357,49.710 95.501,49.830 95.574,49.967 C97.231,51.541 98.672,53.217 99.898,54.995 C101.266,57.185 102.204,59.545 102.709,62.076 C103.934,69.464 101.952,75.451 96.763,80.034 C91.574,84.618 85.411,87.525 78.276,88.756 C64.509,91.219 51.968,88.653 40.654,81.060 C38.203,79.351 35.932,77.434 33.843,75.313 C32.473,73.945 31.248,72.509 30.167,71.003 C29.878,70.798 29.770,70.593 29.843,70.388 L30.816,66.796 C30.959,66.454 31.211,66.249 31.573,66.180 C31.932,66.113 32.292,66.215 32.654,66.488 C38.059,73.399 44.238,77.776 51.194,79.623 C58.149,81.470 64.690,81.675 70.816,80.239 C76.942,78.802 81.519,76.442 84.546,73.158 C85.628,72.065 86.312,71.003 86.601,69.977 C86.888,68.951 86.996,68.011 86.925,67.155 C86.852,66.300 86.709,65.633 86.492,65.154 L86.276,64.744 L86.168,64.641 L86.168,64.538 C82.203,67.481 77.806,69.499 72.979,70.593 C68.149,71.688 63.320,71.654 58.492,70.490 C51.933,68.643 47.211,64.744 44.329,58.792 C41.951,53.045 42.022,47.436 44.546,41.962 C46.779,37.722 49.987,34.815 54.168,33.240 L35.681,33.240 L35.681,33.445 C34.454,33.994 33.248,34.763 32.059,35.754 C30.870,36.747 29.878,37.688 29.086,38.576 L28.762,38.884 C25.518,42.031 22.816,45.623 20.653,49.659 C20.653,49.728 20.616,49.761 20.545,49.761 C20.545,49.830 20.508,49.899 20.437,49.967 C17.410,55.508 15.356,61.049 14.275,66.591 C13.194,72.132 13.697,77.845 15.788,83.728 C18.167,89.954 22.275,94.775 28.113,98.197 C33.951,101.617 40.149,101.788 46.708,98.710 L46.816,98.607 C47.392,98.264 47.968,98.094 48.546,98.094 C49.049,98.094 49.482,98.248 49.843,98.556 C50.203,98.864 50.527,99.188 50.816,99.531 C52.113,100.968 53.411,102.369 54.708,103.738 L58.492,108.048 C58.852,108.253 59.122,108.526 59.303,108.869 C59.482,109.211 59.573,109.587 59.573,109.998 C59.573,110.545 59.374,110.989 58.978,111.332 C58.581,111.673 58.168,111.981 57.735,112.255 C47.860,116.976 38.095,116.702 28.437,111.435 C24.689,109.244 21.518,106.576 18.924,103.430 C16.329,100.283 14.130,96.930 12.329,93.374 C8.005,84.959 5.842,76.031 5.842,66.591 C5.842,57.150 8.256,48.325 13.086,40.115 C13.302,39.774 13.734,39.141 14.383,38.217 C15.032,37.293 15.716,36.336 16.437,35.344 C17.157,34.353 17.734,33.650 18.167,33.240 L18.167,33.137 L18.275,33.035 C18.275,32.967 18.329,32.898 18.437,32.830 C18.545,32.762 18.616,32.693 18.653,32.624 C18.689,32.557 18.743,32.488 18.816,32.419 L21.410,29.238 L25.086,29.238 L35.681,29.238 L103.790,29.238 L105.952,29.238 L122.925,29.238 L125.088,29.238 L170.818,29.238 C168.872,25.202 165.916,22.295 161.953,20.515 C157.989,18.737 153.899,17.642 149.683,17.232 C145.466,16.821 142.132,16.719 139.683,16.924 C139.034,16.924 138.510,16.703 138.115,16.257 C137.718,15.813 137.556,15.282 137.628,14.666 L139.466,7.278 C139.537,6.936 139.737,6.628 140.061,6.354 C140.385,6.082 140.764,5.910 141.196,5.841 C143.791,5.705 147.737,6.030 153.034,6.816 C158.332,7.603 163.430,9.673 168.332,13.024 C173.232,16.377 176.295,21.782 177.521,29.238 L186.819,29.238 L188.981,29.238 L249.630,29.238 L251.793,29.238 L268.766,29.238 L270.928,29.238 L333.740,29.238 L333.740,33.240 L329.091,33.240 C327.505,40.766 326.640,48.599 326.497,56.739 C325.848,67.822 326.784,78.837 329.308,89.782 C329.379,89.987 329.451,90.262 329.524,90.603 C329.740,91.014 329.884,91.459 329.956,91.937 C330.002,92.287 329.958,92.528 329.843,92.682 C330.350,93.663 330.824,94.724 331.254,95.888 C331.975,97.838 332.515,99.736 332.875,101.583 C340.803,105.003 346.803,108.510 350.876,112.102 C354.947,115.693 357.379,118.207 358.173,119.644 C358.460,120.054 358.497,120.430 358.281,120.773 ZM236.333,51.711 C236.044,45.418 235.612,39.740 235.036,34.677 C234.963,34.130 234.928,33.650 234.928,33.240 L213.846,33.240 C218.314,36.113 221.089,39.397 222.171,43.091 C223.252,46.786 223.684,49.659 223.468,51.711 C225.990,52.670 228.404,54.004 230.711,55.713 C231.144,55.987 231.647,56.364 232.225,56.842 C232.944,57.458 233.701,58.022 234.495,58.535 C235.287,59.048 236.080,59.443 236.873,59.715 C236.585,56.980 236.404,54.312 236.333,51.711 ZM318.280,51.711 C317.992,45.418 317.559,39.740 316.983,34.677 C316.910,34.130 316.875,33.650 316.875,33.240 L295.793,33.240 C300.261,36.113 303.037,39.397 304.118,43.091 C305.199,46.786 305.632,49.659 305.415,51.711 C307.937,52.670 310.351,54.004 312.659,55.713 C313.091,55.987 313.594,56.364 314.172,56.842 C314.892,57.458 315.649,58.022 316.443,58.535 C317.235,59.048 318.027,59.443 318.821,59.715 C318.532,56.980 318.351,54.312 318.280,51.711 ZM309.740,106.817 C308.804,107.363 307.974,108.082 307.253,108.972 C306.534,109.860 306.280,110.921 306.496,112.153 C307.074,113.657 308.155,114.324 309.740,114.154 C311.326,113.982 312.966,113.436 314.659,112.512 C316.353,111.588 317.561,110.784 318.280,110.100 C319.794,108.731 320.804,107.089 321.307,105.175 C317.199,104.285 313.344,104.832 309.740,106.817 Z"/>
</svg>